# xmcd
#
# Track frame offsets: 
#        150
#        10385
#        22518
#        33662
#        43241
#        58672
#        64983
#        76717
#        88551
#        98851
#        110135
#        116860
#        129898
#        140363
#        149771
#        167728
#
# Disc length: 2368 seconds
#
# Revision: 0
# Processed by: cddbd v1.5.2PL0 Copyright (c) Steve Scherf et al.
# Submitted via: ExactAudioCopy v0.99pb5
#
DISCID=dd093e10
DTITLE=Wagner Cinelli - Instrumental
DYEAR=2004
DGENRE=Instrumental
TTITLE0=Joy
TTITLE1=Vozes
TTITLE2=Latinidade
TTITLE3=Estúdio em mí
TTITLE4=Caminhos
TTITLE5=Re-flexões
TTITLE6=Destress
TTITLE7=Bom dia
TTITLE8=Bistrô paulista
TTITLE9=Kalimba
TTITLE10=Crômica
TTITLE11=Lipi
TTITLE12=Para meu filho
TTITLE13=Lucy's
TTITLE14=Café carioca
TTITLE15=Bambaião
EXTD=
EXTT0=
EXTT1=
EXTT2=
EXTT3=
EXTT4=
EXTT5=
EXTT6=
EXTT7=
EXTT8=
EXTT9=
EXTT10=
EXTT11=
EXTT12=
EXTT13=
EXTT14=
EXTT15=
PLAYORDER=
